<?xml version="1.0" encoding="UTF-8"?>
<svg id="Layer_2" data-name="Layer 2" xmlns="http://www.w3.org/2000/svg" viewBox="0 0 181.91 86.61">
  <defs>
    <style>
      .cls-1 {
        fill: none;
      }

      .cls-2 {
        fill: #2aa9e0;
      }

      .cls-3 {
        fill: #6e6f70;
      }
    </style>
  </defs>
  <g id="Layer_5" data-name="Layer 5">
    <g id="Principal_SemFundo">
      <rect class="cls-1" width="181.91" height="86.61"/>
      <g id="Principal">
        <g>
          <path class="cls-3" d="M30.11,25.15h4.12l.45,1.56c1.43-1.07,3.18-1.95,5.03-1.95,1.95,0,3.37.81,4.19,2.17,1.85-1.49,3.8-2.17,5.39-2.17,2.82,0,5.45,1.4,5.45,5.68v10.06h-4.9v-8.79c0-1.49-.23-2.73-2.04-2.73-.94,0-2.04.36-2.92,1.01v10.51h-4.9v-8.73c0-1.49-.19-2.79-2.01-2.79-.94,0-2.08.36-2.95,1.01v10.51h-4.9v-15.35Z"/>
          <path class="cls-3" d="M60.97,34.3c.1,1.88,1.72,2.76,3.8,2.76,1.62,0,2.82-.39,3.96-1.04l1.43,3.31c-1.82,1.1-3.76,1.49-5.78,1.49-6.1,0-8.31-3.89-8.31-7.82,0-4.61,2.5-8.24,7.33-8.24s7.3,3.18,7.3,8.4v1.14h-9.74ZM65.8,31.06c-.03-1.33-.71-2.66-2.5-2.66-1.62,0-2.4,1.3-2.4,2.66h4.9Z"/>
          <path class="cls-3" d="M71.39,32.94c0-4.77,3.54-8.18,8.76-8.18.36,0,1.27.03,1.72.1v-7.33h4.9v22.1c-1.78.88-4.32,1.2-6.13,1.2-5.39,0-9.25-2.89-9.25-7.89ZM81.87,36.67v-7.82c-.45-.06-.84-.1-1.46-.1-2.47,0-4.02,1.53-4.02,4.12s1.82,3.96,4.06,3.96c.36,0,1.01-.03,1.43-.16Z"/>
          <g>
            <path class="cls-2" d="M93.74,37.06c-1.43,0-3.08-.49-4.41-1.36l-1.49,3.5c1.46.91,3.7,1.62,6.36,1.62,3.41,0,6.62-1.33,6.62-4.93,0-5.45-7.24-4.71-7.24-6.46,0-.58.49-.91,1.69-.91,1.69,0,3.28.49,4.74,1.07v-4.06c-1.4-.49-3.08-.78-4.93-.78-3.8,0-6.26,1.95-6.26,4.9,0,5.16,7.24,4.28,7.24,6.36,0,.78-.91,1.04-2.3,1.04Z"/>
            <path class="cls-2" d="M131.68,24.76c-1.01,0-1.97.22-2.89.61-.24-.03-.49,0-.72.11l-.05.03c-.17.1-.72.45-1.56,1.02l-.43-1.37h-4.19v4.59c-1.02.73-2.13,1.52-3.3,2.39.72-2.86,1.21-5.43,1.43-7.53.11-.9-.37-1.79-1.28-2.37-.34-.22-1.2-.68-1.88-.27-.35.21-.55.61-.51,1,.03.49.06.88-.09,1.28-.71,2.05-6.86,9.94-10.24,11.73.48-1.27,1.5-3.32,2.12-4.57,1.27-2.56,1.68-3.43,1.68-4,0-1.03-1.24-2.39-2.07-2.81-.39-.2-.86-.25-1.3-.14-.69.2-.95.7-1.89,2.58-.2.41-.2.81,0,1.23v.04c-.11.26-.31.73-.55,1.27-.85,1.94-2.14,4.87-2.14,6.62,0,2.59,2.6,3.93,3.71,3.93,1.72,0,5.55-3.96,8.38-7.28-.39,1.31-.79,2.55-1.19,3.73-15.93,12.42-24.01,21.59-24.01,27.26,0,2.54,2,5.28,6.4,5.28,9.7,0,18.66-21,22.14-32.39,1.53-1.14,3.07-2.24,4.58-3.31v7.11h4.9v-10.38c.91-.71,2.11-1.14,3.12-1.14,1.82,0,2.08,1.36,2.08,2.95v8.57h4.9v-10.03c0-4.74-2.69-5.71-5.16-5.71ZM93.74,65.7c-1.14,0-1.51-1.39-1.51-2.06,0-4.33,6.91-12.43,18.65-21.95-6.35,16.43-13.71,23.94-17.15,24.01Z"/>
            <path class="cls-2" d="M150.44,35.92c-1.17.65-2.21,1.04-3.5,1.04-2.3,0-3.83-1.43-3.83-4.09,0-2.37,1.46-4.25,4.02-4.25,1.49,0,2.66.45,3.8,1.33v-4.06c-.78-.52-2.17-1.14-4.38-1.14-4.45,0-8.44,3.18-8.44,8.15,0,4.54,2.92,7.92,8.11,7.92,2.24,0,4.28-.65,5.58-1.59l-1.36-3.31Z"/>
          </g>
        </g>
      </g>
    </g>
  </g>
</svg>