<?xml version="1.0" encoding="UTF-8"?>
<svg id="Expandir" xmlns="http://www.w3.org/2000/svg" viewBox="0 0 20 20">
  <defs>
    <style>
      .cls-1 {
        fill: none;
        stroke: #26a9e0;
        stroke-miterlimit: 10;
        stroke-width: .74px;
      }

      .cls-2 {
        fill: #00a4e8;
      }
    </style>
  </defs>
  <g>
    <path class="cls-2" d="M11.93,8.79c-.12,0-.25-.05-.34-.14l-1.59-1.59-1.59,1.59c-.19.19-.5.19-.69,0-.19-.19-.19-.5,0-.69l1.93-1.93c.19-.19.5-.19.69,0l1.93,1.93c.19.19.19.5,0,.69-.09.09-.22.14-.34.14Z"/>
    <path class="cls-2" d="M8.07,10.69c.12,0,.25.05.34.14l1.59,1.59,1.59-1.59c.19-.19.5-.19.69,0,.19.19.19.5,0,.69l-1.93,1.93c-.19.19-.5.19-.69,0l-1.93-1.93c-.19-.19-.19-.5,0-.69.09-.09.22-.14.34-.14Z"/>
  </g>
  <rect class="cls-1" x=".39" y=".39" width="19.22" height="19.22" rx="1.41" ry="1.41"/>
</svg>