<?xml version="1.0" encoding="UTF-8"?>
<svg id="Layer_2" data-name="Layer 2" xmlns="http://www.w3.org/2000/svg" xmlns:xlink="http://www.w3.org/1999/xlink" viewBox="0 0 99.97 99.97">
  <defs>
    <style>
      .cls-1 {
        fill: #fff;
      }

      .cls-2 {
        fill: none;
      }

      .cls-3 {
        fill: #ccc;
      }

      .cls-4 {
        clip-path: url(#clippath);
      }

      .cls-5 {
        fill: #e6e6e6;
      }
    </style>
    <clipPath id="clippath">
      <circle class="cls-2" cx="49.98" cy="49.98" r="49.98"/>
    </clipPath>
  </defs>
  <g id="Icones">
    <g id="Cotovelo_Cinza">
      <g class="cls-4">
        <circle class="cls-5" cx="49.98" cy="49.98" r="49.98"/>
        <g>
          <path class="cls-3" d="M50.58,81.19c7.03-1.91,14.49-3.32,21.39-5.4,2.88-.87,4.29-1.66,5.61-3.43l.32-.02-.03-.38c.41-.6.82-1.29,1.27-2.12,7.31-13.5.03-28.49-5.61-41.16-4.16-9.36-8.9-18.46-13.43-27.64C56.84.35,53.45,0,49.98,0,48.97,0,47.97.04,46.98.1c2.3,18.49,2.98,37.39,7.86,55.41-12.65-4.35-26.2-5.29-39.48-6.48-3.81-5.38-7.69-6.99-14.19-6.23-.22.03-.44.06-.65.09C.18,45.21,0,47.58,0,49.98,0,64.51,6.2,77.58,16.09,86.71l4.47-.08c10.81.02,19.88-2.68,30.02-5.44ZM76.84,57.78c.06.39.08.82.08,1.25l-.09-1.19v-.06Z"/>
          <g>
            <path class="cls-2" d="M10.41,60.72c.45-.98.22-1.01.04-1.93-.03-.16.02-.36,0-.53,2.28.85,3.47,2.96,4.93,3.61,1.04.46,5.35.75,6.76.86,6.01.46,12.11.58,18.13.78,6.22.2,16.65,1.09,22.45-.78.28-.09,2.28-.96,2.36-1.06.13-.18-.37-1.23-.48-1.69-.62-2.58,2.38-4.57,3.06-4.91.58-.29-1.79-8.93-2.12-10.26-2.64-10.49-6.07-20.76-9.03-31.15-.12-.43-.63-2.56-.63-2.56-1.19-4.98-2.93-8.58-4.52-11.06-.41-.01-.82-.03-1.24-.03.02.04.06.08.08.11,3.92,5.81,5.23,12.44,5.23,12.45,2.13,10.19,4.66,20.49,7.32,30.58,1,3.77,3.35,9.9,3.4,11.29-1.53.49-3.04,3.71-2.71,5.33,0,.04.43,1.08.47,1.21-.3.16-1.59.95-1.85,1.1-.26,0-.68-.12-.83-.2-1.33-.8-1.18-7.1-1.38-8.73-1.45-11.48-3.78-23.51-6.12-34.85-1-4.86-1.94-10.57-3.41-15.24-.35-1.11-.91-2.07-1.44-3.02C21.78.63,0,22.75,0,49.98c0,.84.02,1.68.06,2.51,1.2-.85,2.46-1.51,3.67-1.32,1.6.25,5.46,5.22,5.67,6.83.19,1.42-1.69,3.49-2.63,4.59-1.01,1.17-2.48,2.84-4.02,3.75.14.4.28.81.43,1.2,1.44-.64,6.65-5.56,7.23-6.83Z"/>
            <path class="cls-2" d="M57.83.62c6.15,19,12.36,37.99,18.95,56.85.02.11.03.22.05.33h0s0,.02,0,.04c.05.37.07.76.07,1.16,0,.01,0,.02,0,.04v-.03c-.03,2.62-1.2,5.67-3.95,5.83.04,1.53,2.15,4.92,1.05,6.17-2.07,2.36-11.06.36-14.06.13-6.2-.48-12.81-.42-19.04-.53-.54,0-15.94-1.09-21.8-.26-.03,0-.18.18-.53.26-3.72.94-8.12,4.31-12.28,3.7,8.55,15.3,24.89,25.65,43.66,25.65,27.61,0,49.98-22.38,49.98-49.98,0-24.93-18.26-45.6-42.14-49.37Z"/>
            <path class="cls-1" d="M6.77,62.59c.94-1.1,2.82-3.17,2.63-4.59-.21-1.6-4.06-6.58-5.67-6.83-1.21-.19-2.47.47-3.67,1.32.24,4.83,1.17,9.47,2.69,13.84,1.54-.9,3.01-2.57,4.02-3.75Z"/>
            <path class="cls-1" d="M18.6,70.61c.34-.09.5-.26.53-.26,5.86-.83,21.26.25,21.8.26,6.23.11,12.84.05,19.04.53,3,.23,11.99,2.23,14.06-.13,1.1-1.25-1.02-4.64-1.05-6.17,2.75-.16,3.92-3.21,3.95-5.83v.03s0-.02,0-.04c0-.4-.02-.79-.07-1.16,0-.02,0-.03,0-.05h0c-.02-.1-.03-.21-.05-.32-6.6-18.85-12.81-37.85-18.95-56.85-2.12-.33-4.28-.52-6.48-.58,1.59,2.48,3.33,6.08,4.52,11.06,0,0,.51,2.13.63,2.56,2.96,10.39,6.39,20.67,9.03,31.15.33,1.33,2.7,9.97,2.12,10.26-.68.34-3.67,2.33-3.06,4.91.11.46.61,1.51.48,1.69-.08.1-2.08.97-2.36,1.06-5.79,1.87-16.23.98-22.45.78-6.02-.2-12.12-.32-18.13-.78-1.41-.11-5.72-.39-6.76-.86-1.46-.65-2.64-2.75-4.93-3.61.02.17-.03.37,0,.53.18.92.41.95-.04,1.93-.58,1.26-5.8,6.19-7.23,6.83.88,2.35,1.93,4.61,3.14,6.77,4.15.6,8.56-2.76,12.28-3.7Z"/>
            <path class="cls-1" d="M53.71,18.29c2.34,11.35,4.67,23.37,6.12,34.85.21,1.63.06,7.93,1.38,8.73.15.09.57.2.83.2.26-.15,1.55-.94,1.85-1.1-.04-.13-.46-1.17-.47-1.21-.33-1.63,1.18-4.84,2.71-5.33-.05-1.39-2.4-7.52-3.4-11.29-2.67-10.09-5.19-20.39-7.32-30.58,0,0-1.31-6.64-5.23-12.45-.02-.03-.05-.08-.08-.11-.04,0-.08,0-.13,0-.38,0-.75.02-1.12.03.53.95,1.09,1.92,1.44,3.02,1.46,4.67,2.41,10.38,3.41,15.24Z"/>
          </g>
        </g>
      </g>
    </g>
  </g>
</svg>