<?xml version="1.0" encoding="UTF-8"?>
<svg id="Layer_2" data-name="Layer 2" xmlns="http://www.w3.org/2000/svg" xmlns:xlink="http://www.w3.org/1999/xlink" viewBox="0 0 99.97 99.97">
  <defs>
    <style>
      .cls-1, .cls-2 {
        fill: #fff;
      }

      .cls-2 {
        fill-rule: evenodd;
      }

      .cls-3 {
        fill: none;
      }

      .cls-4 {
        fill: #187da0;
      }

      .cls-5 {
        fill: #27aae1;
      }

      .cls-6 {
        clip-path: url(#clippath);
      }
    </style>
    <clipPath id="clippath">
      <circle class="cls-3" cx="49.98" cy="49.98" r="49.98"/>
    </clipPath>
  </defs>
  <g id="Icones">
    <g id="Pe_Azul">
      <circle class="cls-5" cx="49.98" cy="49.98" r="49.98"/>
      <g class="cls-6">
        <g>
          <path class="cls-4" d="M92.58,59.22c-.29-.92-.77-1.43-1.45-1.51-1.61-1.77-5.59-.69-7.4-.92-5.2-.67-10.68-2.32-14.64-1.29-4.29-.43-23.09-7.1-32.76-7.92-5.09-.61-10.46-24.72-13.27-39.7-7.7,4.94-13.96,11.92-18,20.2,3.01,13.68,5.2,28.07,4.7,33.17-.16,1.6.33,3.02.28,4.27.3,14.1,9.48,18.45,22.41,11.01,4.15-2.7,10.89-4.16,20.23-4.37,9.8-.8,16.98-2.63,21.55-5.5,4.18-2.56,20.08-.66,18.36-7.42Z"/>
          <path class="cls-2" d="M21.98,75.52c-2.8.7-5.69-1.58-7.02-5.53-.52-1.53-.31-3.33.57-4.94.94-1.72,2.5-2.99,4.18-3.41.72-.18,1.44-.2,2.15-.06,1.36.27,2.66.31,3.92.35,1.54.04,2.99.08,4.58.51,2.04.55,4.19,2.46,4.71,4.14-.36.36-1.7.92-2.71,1.33-2.3.95-5.17,2.14-6.41,4.18-1.13,1.87-2.51,3.05-3.98,3.42Z"/>
          <path class="cls-2" d="M35.12,63.43c-1.02.25-2.82.12-3.72-.02-1.21-.19-2.79-.13-4.47-.07-4.62.17-8.19.1-8.61-2.43-.68-4.06.43-4.94,3.74-6.88.98-.58,1.91-.98,2.76-1.19,2.24-.56,3.59.28,4.68.95.68.42,1.33.82,2.06.77,1.61-.11,2.07.1,2.2.23.24.24.18,1.19.11,2.19-.03.4-.06.85-.07,1.34-.08,1.96.48,2.76.97,3.46.3.43.56.8.74,1.51-.06.04-.18.09-.39.14h0Z"/>
          <path class="cls-2" d="M38.62,64.82c-.33.08-.54.04-.58.01t0,0s-.01-.06-.01-.16c0-1.18-.54-2.23-1.11-3.33-.9-1.72-1.75-3.34-.71-5.66.13-.28.95-.59,1.29-.71.08-.03.16-.06.23-.09.05-.02.09-.03.14-.04.65-.16,1.13.38,1.35.88.68,1.58.52,4.44.34,5.51-.1.59-.05,1.2,0,1.74.07.81.09,1.32-.17,1.51-.22.16-.49.29-.77.35h0Z"/>
          <path class="cls-2" d="M51.34,63.7c-.57.14-1.4.14-2.27.13-1.07,0-2.29-.01-3.39.26-2.58.64-3.47-1.74-3.73-2.79s-.27-2.32,0-3.28c.11-.41.46-1.38,1.18-1.56.03,0,.06-.01.09-.02.29-.05.67.06,1.16.2,1.1.31,2.75.77,5.47.09.16-.04.32-.08.49-.13.09-.03.18-.05.26-.07.69-.17,1.61-.29,2.01.13.87.89.03,4-.38,5.5-.11.41-.21.77-.28,1.07-.03.14-.08.34-.62.47Z"/>
          <path class="cls-2" d="M70.47,65.3c-1.05.26-2.82-.31-4.83-1.57-1.89-1.18-3.7-.95-5.06-.61-.52.13-1.03.29-1.52.45-.46.15-.89.28-1.31.39-.54.14-.97.19-1.35.18-.95-.04-1.63-.27-1.86-.64-.23-.35-.08-.91.08-1.33.07-.17.29-.91.47-1.56.29-1.09.36-1.56.29-1.88,0-.04,0-.08-.01-.12-.17-1.5.03-2.4.56-2.53.21-.05.61-.06,1.33.21.98.37,1.4.8,1.94,1.35.53.55,1.14,1.17,2.3,1.74,1.95.96,4.39,1.06,6.55,1.15,1.43.06,3.39.14,3.69.6.06.09.05.36-.14.84-.31.74-.12,1.3,0,1.67.11.32.15.44-.1.87-.25.44-.58.7-1.02.81Z"/>
          <path class="cls-2" d="M81.83,62.32c-.06.02-.26.04-.66-.07-.84-.24-1.81-.23-2.89.04-1.26.31-2.36.9-2.97,1.35-.04.03-.23.14-.56.22-.61.15-1.07.08-1.18-.02-.03-.03-.06-.15-.03-.34,0-.02.18-2.1-.4-3.16.06-.03.14-.05.23-.08.48-.12,1.04-.08,1.49.1,1.35.56,2.66.68,4.11.37.02,0,.04,0,.07-.02.14-.04.29-.09.46-.15.19-.07.4-.14.61-.19.42-.1.72-.09.91.03.37.23.74.85.84,1.41.06.32,0,.48-.01.51,0,0-.01,0-.03,0Z"/>
          <path class="cls-2" d="M83.8,61.75c.07-.8-.07-1.35-.26-1.73.34-.02.77.01,1.19.04.82.05,1.67.1,2.43-.08,1.02-.25,1.61-.04,1.87.13-.01,0-.02,0-.04.01-.12.03-.27.04-.42.02-.87-.1-1.4-.03-2.01.13-.15.04-.3.08-.48.13l-.21.06c-.58.15-1.04.52-1.45.85-.21.17-.44.35-.63.45Z"/>
          <path class="cls-1" d="M10.13,19.85c.46,1.81.83,3.19,1,3.67,2.97,8.56,7.05,20.28,5.88,25.45l-.06.25c-.37,1.64-.93,4.11-.13,5.21.29.39.77.62,1.48.68.78.07,1.94.26,2.95,1.17.34.3,1.29.48,2.58.16,1.51-.37,2.78-1.27,3.24-2.29.12-.28.32-.52.53-.77.7-.86,1.65-2.03.03-4.98-1.54-2.81-2.04-3.96-3.03-7.97-.77-3.11-2.25-10.04-3.56-16.15-.37-1.71-1.66-7.57-2.83-12.83-3.01,2.48-5.72,5.3-8.07,8.41Z"/>
        </g>
      </g>
    </g>
  </g>
</svg>