<?xml version="1.0" encoding="UTF-8"?>
<svg id="Layer_2" data-name="Layer 2" xmlns="http://www.w3.org/2000/svg" xmlns:xlink="http://www.w3.org/1999/xlink" viewBox="0 0 99.97 101.23">
  <defs>
    <style>
      .cls-1 {
        fill: #fff;
      }

      .cls-1, .cls-2 {
        fill-rule: evenodd;
      }

      .cls-3 {
        fill: none;
      }

      .cls-2 {
        fill: #ccc;
      }

      .cls-4 {
        clip-path: url(#clippath);
      }

      .cls-5 {
        fill: #e6e6e6;
      }
    </style>
    <clipPath id="clippath">
      <circle class="cls-3" cx="49.98" cy="49.98" r="49.98"/>
    </clipPath>
  </defs>
  <g id="Icones">
    <g id="Mao_Cinza">
      <g class="cls-4">
        <circle class="cls-5" cx="49.98" cy="49.98" r="49.98"/>
        <g>
          <path class="cls-2" d="M59.19,101.23h-23.55c1.4-5.44.38-18.41.18-25.09-.26-8.48.2-13.84-2.26-21.96-3.03-10.01-3.58-15.41-4.33-21.44-.31-2.47-.42-4.55-.67-6.16-.98-6.42,3.6-6.7,4.84.4,1.06,6.11,2.11,10.32,4.02,9.15.85-.52,1-3.52,1.14-7.23.16-4.24.24-9.41.21-12.93-.01-2,.14-3.04.35-4.33.74-4.54,6.13-3.37,5.69,3.02-.3,4.4-.48,10.46.2,14.58.28,1.71.58,3.34,1.17.36.42-2.13.47-5.53.49-5.8.2-2.96,1.12-8.41.94-10.84-.8-10.69,6.85-10.38,6.29-.46-.15,2.7-.34,13.95.08,18.47.27,2.89,1.38.82,1.63-.57.54-2.96,1.15-8.35,1.42-9.3,1.14-4-.14-11.37,4.56-11.59,4.86-.23,2.15,12.26,2.33,15.71.38,7.17-1.93,16.09-.5,21.14,1.51,5.34,2.53,5.84,4.85.39,1.76-4.14,2.7-8.46,7.23-10.38,1.96-1.2,5.96.83,3.09,4.88-2.27,3.19-4.75,13.21-6.31,16.45-1.53,3.17-5.58,8.95-8.32,11.12-7.93,6.28-4.85,23.33-4.77,32.41Z"/>
          <path class="cls-1" d="M60.9,25.19c-.27-.04-.52.08-.75.05-2.2-.36-2.7.39-2.45,2.38.28,2.26-.39,5.81-1.61,8.18-.37.72-1.23,1.56-1,2.32.15.49.62.81,1.22.54.89-.4,2.24.68,3.21.88,1.17.25,2.53-1.14,1.49-3.08-.9-1.67.09-6.57.57-8.45.07-.76,1.72-2.46-.66-2.82Z"/>
          <path class="cls-1" d="M50.96,23.2c-.27-.02-.51.15-.74.13-2.22-.21-2.66.71-2.25,3,.47,2.6.09,6.79-.94,9.65-.31.87-1.1,1.93-.81,2.8.18.56.62.82,1.26.61,1.57-.52,2.27.57,3.37.54,1.39-.04,2.3-1.52,1.13-3.63-1.03-1.86-.44-7.65-.13-9.87,0-.89,1.52-3.02-.89-3.22Z"/>
          <path class="cls-1" d="M41.66,25.93c-.62,0-1.09.09-1.43.25-.91.41-.95,1.36-.47,2.95.76,2.51,1.28,6.56.59,9.5-.21.9-.87,2.02-.49,2.84.25.53.71.75,1.32.46,1.67-.78,3.3,1.17,4.19-.52.37-.7.35-1.72-.5-2.92-1.23-1.72-1.3-6.21-1.23-8.44-.08-.72,1.04-3.12-.14-4.01-.87-.66-1.26-.14-1.83-.13Z"/>
          <path class="cls-1" d="M33.04,35.61c-1.54.02-2.13.72-1.21,2.4.86,1.57,1.59,4.23,1.68,6.24.03.61-.21,1.45.21,1.92.27.3.62.37.98.08,1.77-1.4,3.36-.32,3.64-1.56.12-.51-.09-1.17-.9-1.8-1-.78-1.74-3.01-2.19-4.54-.3-1.01-.03-2.79-1.06-3.07-.75-.2-.75.33-1.15.33Z"/>
          <path class="cls-1" d="M59.72,17.27c-.51-.2-.95.48-.7,1.27.37,1.15.03,3.05-.62,4.33-.2.39-.81.93-.51,1.25.42.44.99.01,1.76.61.46.35,1.52-.09,1.83-.06.74.08,1.58-.6.84-1.57-.72-.96-.19-3.37.12-4.53.1-.39.16-.84-.16-1.1-.41-.33-1.68.15-2.57-.2Z"/>
          <path class="cls-1" d="M49.32,14.2c-.6-.24-1.09.56-.77,1.48.47,1.34.14,3.54-.58,5.04-.22.46-.92,1.09-.56,1.46.5.52,1.15.01,2.07.7.54.41,1.77-.11,2.13-.07.86.1,1.81-.7.93-1.83-.87-1.11-.33-3.92,0-5.27.11-.45.16-.98-.22-1.28-.48-.38-1.95.18-2.99-.23Z"/>
          <path class="cls-1" d="M40.51,16.75c-.56-.21-.96.6-.62,1.49.5,1.3.32,3.48-.25,4.98-.17.46-.78,1.11-.43,1.46.48.49,1.05-.04,1.93.61.52.38,1.6-.18,1.94-.16.79.06,1.62-.76.75-1.84-.86-1.06-.51-3.84-.3-5.19.07-.45.09-.97-.27-1.25-.46-.35-1.77.26-2.74-.1Z"/>
          <path class="cls-1" d="M30.47,29.23c-.43-.06-.56.57-.16,1.16.58.85.84,2.43.72,3.59-.04.35-.34.91-.04,1.1.42.27.72-.19,1.45.14.43.19,1.08-.37,1.31-.41.56-.08.99-.79.19-1.42-.78-.62-1.04-2.66-1.13-3.66-.03-.33-.11-.71-.41-.85-.38-.18-1.18.45-1.92.35Z"/>
          <path class="cls-1" d="M59.75,13.49c0,.64.44.15.25,1.06-.11.54-.93,1.69-.68,1.95.33.35.58,0,1.18.48.36.28,1.19-.07,1.44-.05.58.07,1.22-.46.66-1.23-.26-.37-.42-.71-.43-1.05-.03-.6.22-.21.38-.77.82-2.96-2.79-4.11-2.79-.38Z"/>
          <path class="cls-1" d="M49.22,10.11c0,.69.48.16.27,1.14-.12.58-1,1.82-.73,2.1.35.38.62,0,1.28.51.39.3,1.29-.08,1.55-.05.62.07,1.31-.49.71-1.33-.28-.4-.45-.76-.47-1.14-.03-.65.24-.22.41-.83.89-3.2-3.01-4.44-3.01-.41Z"/>
          <path class="cls-1" d="M40.33,13.04c0,.62.45.14.25,1.02-.12.52-.94,1.62-.69,1.87.33.33.58,0,1.2.46.36.27,1.21-.07,1.46-.04.59.06,1.23-.44.67-1.18-.27-.35-.42-.68-.44-1.01-.03-.58.22-.2.38-.74.84-2.85-2.83-3.95-2.84-.37Z"/>
          <path class="cls-1" d="M29.69,26.05c.11.53.35.05.36.84,0,.47-.4,1.56-.17,1.73.3.23.42-.09.95.19.31.17.86-.27,1.04-.29.43-.05.82-.59.28-1.14-.25-.26-.42-.51-.49-.8-.12-.49.13-.21.15-.7.11-2.6-2.72-2.92-2.11.17Z"/>
          <path class="cls-1" d="M72.71,43.95c-.38-.58-2.24-.18-2.2.91.05,1.56-.71,5.26-2.54,6.53-.47.33-1.38.94-1.38,1.49,0,.99,1.01.99,2.07,1.34,1.07.35,1.02,1.08,1.68,1.48.76.47,1.99-.74,1.65-2.27-.34-1.5.95-4.25,1.87-5.54,2.22-3.11.19-1.92-1.16-3.95Z"/>
          <path class="cls-1" d="M74.35,39.94c-.34.67.35.37-.32,1.24-.39.52-1.77,1.33-1.67,1.73.13.52.55.28.89,1.07.2.46,1.18.49,1.4.64.52.34,1.41.1,1.28-.98-.06-.51-.03-.94.14-1.32.29-.65.32-.11.76-.63,2.34-2.73-.52-5.66-2.48-1.73Z"/>
          <path class="cls-1" d="M57.77,39.77c-2.33-1.16-3.79,1.62-3.17,4.12.34,1.4-.13,3.06-.24,4.74-.18,2.95-.54,6.08-1.66,8.65-.34.79-1.34,2.62-2.06,3.6-1.23,1.68-.86,3.33.27,2.65,1.03-.62,3.13-.18,4.1.79,1.1,1.11,1.99-1.97,1.38-5.27-.38-2.08,1.58-11.38,2.52-12.76.93-1.36,1.83-3.6,1.27-5.13-.63-1.73-1.52-.92-2.43-1.37Z"/>
          <path class="cls-1" d="M49,40.19c-1.86-.73-3.23,1.23-2.84,4,.18,1.28.29,1.85.35,3.37.1,2.67,1.21,7.11.43,9.51-.24.73-.49,1.11-.56,2.18-.07,1.07-.22,1.78-.07,2.26.52,1.67,2.24.66,2.6,1.15.69.96,1.83-1.36,1.63-3.86-.04-.48-.3-.97-.44-1.44-.53-1.84-.3-10.2.43-11.52.71-1.3,1.6-3.12.96-4.46-.72-1.5-1.63-.87-2.49-1.21Z"/>
          <path class="cls-1" d="M42.15,42.24c-1.64-.4-2.72,1.6-2.09,4,.29,1.11.33,1.6.55,2.93.38,2.35,1.59,6.19,1.5,8.51-.02.55-.55,2.57-.11,3.73.54,1.43,1.88.39,2.69.64.96.3,1.33-.41,1.33-1.4.02-2.06-.63-2.27-1.06-3.3-.65-1.56-1.37-8.97-.91-10.23.45-1.24.99-2.97.31-4.07-.77-1.23-1.46-.63-2.21-.82Z"/>
          <path class="cls-1" d="M36.16,45.66c-.98-.08-1.92.8-1.72,2.14.1.67-.42,1.4.04,2.05,1.52,2.16,3.18,8.14,3.33,9.95.04.51-.43,2.22.08,3.22.64,1.23,1.95.29,2.7.41.9.13,1.55-.95,1.45-1.86-.21-1.89-.81-1.99-1.31-2.88-.75-1.33-2.34-7.66-2.07-8.88.27-1.21.39-2.82-.34-3.72-.82-1.02-1.48-.37-2.18-.42Z"/>
          <path class="cls-1" d="M69.02,55.21c-.67-1.37-3.1-1.26-3.71.18-.34.8-.42,2.19-1.07,2.97-1.14,1.38-2.44,2.79-3.88,3.65-.44.27-1.82.56-2.51.8-1.18.4-1.74,1.95-.96,1.93,1.03-.03,2.25,1.41,2.54,2.02.63,1.33,2.45-.67,3.35-2.49.57-1.15,4.15-3.98,5.17-4.88.74-.65,1.95-1.32,2.25-2.26.33-1.06-.92-1.38-1.18-1.91Z"/>
          <path class="cls-1" d="M44.53,64.52c-.16.73.75,6.72-1.04,5.61-.85-.52-2.08-2.21-3.06-2.57-1.78-.67-1.61-2.11-.29-3.13.81-.63,5.05-2.85,4.39.09Z"/>
          <path class="cls-1" d="M44.99,63.77c0-.1.03-.2.07-.28.35-.76,2.09-.27,3.23.21,2.03.85,2.57,4.5,1.81,6.49-.22.58-.59,1.11-1.19,1.61-1.35,1.12-3.03-.33-3.75-.31-1.3.04-.28-5.26-.17-7.72Z"/>
          <path class="cls-1" d="M42.16,72.58c-1.06.88-2.59,1.23-3.14-.89-.22-.86.07-.94-1-1.58-.56-.33,1-3.7,3.07-1.72,1.58,1.51,3.18,2.46,1.07,4.2Z"/>
          <path class="cls-1" d="M45.44,71.71c-1.11-.42-5.35,2.5-1.28,3.69.82.24,1.95-.54,2.61-.97,1.86-1.22-.44-2.39-1.33-2.72Z"/>
          <path class="cls-1" d="M50.59,68.39c-.2.33-.58,2.5-.97,3.11-.71,1.1-2.26,1.03-2.14,2.59.05.68,1.26,1.85,2.36.87.78-.69.83-.58,2.24-1.81,2.33-2.05,2.58-2.56-.04-4.73-.18-.14-.98-.78-1.44-.03Z"/>
          <path class="cls-1" d="M57.02,65.64c.36.41,1.56.91,1.64,1.58.15,1.19-2,3.32-3.48,1.62-.44-.51-1.16-.31-1.26-.96-.07-.43.19-.71.59-1.42.29-.52,1.6-2.69,2.51-.83Z"/>
          <path class="cls-1" d="M54.74,65.17c-.29-.44-1.81-1.57-2.69-1.31-.41.12-1.71.34-1.93.71-.31.54,1.02,2.01,1.15,2.98.15,1.17,1.97.81,2.76-.68.24-.45,1.1-1.11.72-1.7Z"/>
          <path class="cls-1" d="M46.54,101.07c-.18-5.95.16-14.37-.2-19.48-.18-2.6-2.64-2.83-1.48-4.66,1.2-1.9,3.73-1.07,6.16-1.26,2.33-.18,7.08-3.95,4.98,2.4-.26.79-.55,1.68-.75,2.63-.6,2.86-.21,15.75-.21,20.36h-8.5Z"/>
          <path class="cls-1" d="M39.1,101.07c.56-6.13.63-18.25-.23-20.98-.56-.75-1.47-4.84.62-3.41,1.52,1.04,3.86-.77,4.72,1.65,1.68,4.74-2.38,15.68-.7,22.74h-4.42Z"/>
        </g>
      </g>
    </g>
  </g>
</svg>