<?xml version="1.0" encoding="UTF-8"?>
<svg id="Layer_2" data-name="Layer 2" xmlns="http://www.w3.org/2000/svg" xmlns:xlink="http://www.w3.org/1999/xlink" viewBox="0 0 99.97 99.97">
  <defs>
    <style>
      .cls-1, .cls-2 {
        fill-rule: evenodd;
      }

      .cls-1, .cls-3 {
        fill: #187da0;
      }

      .cls-4, .cls-2 {
        fill: #fff;
      }

      .cls-5 {
        fill: none;
      }

      .cls-6 {
        fill: #27aae1;
      }

      .cls-7 {
        clip-path: url(#clippath);
      }
    </style>
    <clipPath id="clippath">
      <circle class="cls-5" cx="49.98" cy="49.98" r="49.98"/>
    </clipPath>
  </defs>
  <g id="Icones">
    <g id="Quadril_Azul">
      <circle class="cls-6" cx="49.98" cy="49.98" r="49.98"/>
      <g class="cls-7">
        <g>
          <path class="cls-3" d="M89.56,39.33c-2.34-9.05-7.06-16.07-7.25-27.44C73.6,4.49,62.32,0,49.98,0,36.53,0,24.34,5.32,15.35,13.97c.13,10.55-4.73,16.41-7.04,25.37-2.19,8.46-3.52,18.79-3.99,30.98,7.33,16.44,23.26,28.18,42.08,29.51l2.11-12.8c.08-.48.78-.48.85,0l1.89,12.9c18.25-.46,34.07-10.7,42.41-25.68-.32-13.92-1.69-25.57-4.11-34.92Z"/>
          <path class="cls-5" d="M48.52,87.02l-2.11,12.8c1.18.08,2.37.14,3.58.14.43,0,.85-.02,1.28-.03l-1.89-12.9c-.07-.49-.77-.49-.85,0Z"/>
          <g>
            <path class="cls-2" d="M59.74,41.93c-2.38.8-3.02.55-3.77,3.34-.47,1.76-.6,4.76-2.49,4.75-.02.01-.06,0-.07.04l-.2.11c-.63.31-1.9.53-2.28,1.05-.39.53-.27.6-.88.98-.83.52-2.05.54-2.91-.01-1.38-.89.46-.81-2.83-1.9l-.63-.3c-1.04-.06-1.38-.7-1.69-1.73-.28-.92-.45-1.93-.7-2.87-.65-2.5-1.24-2.73-3.23-3.64-.92-.61-1.57.75-2.52-2.72-.59-2.15-.27-4.54-.4-5.05,1.96-2.17,22.71-.79,27.04-.79l.18.18c.69,2.84-.46,7.42-2.32,8.36-.33.17-.15-.04-.29.18Z"/>
            <path class="cls-2" d="M43.66,49.41l.63.29c3.3,1.05,1.46.98,2.83,1.83.86.54,2.08.51,2.91.01.61-.37.49-.43.88-.95.38-.5,1.65-.71,2.28-1.01l.2-.11s.05-.03.07-.04c-.33.71-.42,1.96-.82,2.79-.65,1.34-1.92,1.79-2.18,3.05-.37,1.83-.51,3.31-1.85,3.33h-.04s-.03,0-.05,0c-1.14-.04-1.26-.85-1.5-1.98-.11-.51-.23-.98-.33-1.47-.34-1.54-2.1-1.12-2.78-5.11-.07-.44-.09-.43-.26-.63Z"/>
          </g>
          <path class="cls-5" d="M39.84,67.56c-.18-.09-.73-.39-1.42-.73-3.52-1.77-3.93-2.62-3.63,1.66.22,3.2,1.73,4.93,6.12,4.17,2.1-.36,1.06-4.04-1.06-5.1Z"/>
          <path class="cls-5" d="M60.27,66.83c-.69.35-1.25.64-1.42.73-2.12,1.06-3.16,4.74-1.06,5.1,4.38.76,5.9-.97,6.12-4.17.29-4.28-.11-3.43-3.63-1.66Z"/>
          <path class="cls-4" d="M67.98,57.57c1.16-1.64,4.9-2.06,7.22-.85.5-.64.94-1.3,1.24-2.03,1.19-2.92,1.7-7.27,4.95-6.24,2.93-.31,3.95-4.06,4.81-6.3,3.88-10.04-7.07-16.88-15.21-16.88-4.07,0-6.77-1.4-9.63,2.65-3.69,5.21-3.92,1.53-6.91,3.26-1.97,1.14-2.28,4.56-.22,6.54,1.6,1.54,5.37,3.09,6.1,5.78.67,2.45,5.65,1.7,6.24,6.97.27,2.44.1,2.58-.45,4.82-1.74,7.13-8.37,12.49-16.26,11.97.18,1.22-.08,4.61.2,5.74.16.64.86.37,2.81.6,1.43.17,2.53.67,3.5,1.22,7.14,4,14.52,2.5,14.06-7.26-.03-.68-.02-1.31.03-1.9-2.22-.1-5.1-4.34-2.47-8.07ZM63.9,68.49c-.22,3.2-1.73,4.93-6.12,4.17-2.1-.36-1.06-4.04,1.06-5.1.18-.09.73-.39,1.42-.73,3.52-1.77,3.93-2.62,3.63,1.66Z"/>
          <path class="cls-4" d="M32.57,55.28c-.54-2.24-.72-2.38-.45-4.82.59-5.26,5.57-4.52,6.24-6.97.73-2.68,4.5-4.24,6.1-5.78,2.06-1.98,1.75-5.4-.22-6.54-2.98-1.72-3.22,1.95-6.91-3.26-2.87-4.05-5.57-2.65-9.63-2.65-8.14,0-19.1,6.84-15.21,16.88.87,2.24,1.89,5.99,4.81,6.3,3.25-1.03,3.76,3.32,4.95,6.24.3.73.74,1.39,1.24,2.03,2.32-1.22,6.06-.8,7.22.85,2.63,3.73-.25,7.97-2.47,8.07.05.59.06,1.22.03,1.9-.46,9.76,6.92,11.26,14.06,7.26.98-.55,2.07-1.05,3.5-1.22,1.95-.23,2.65.04,2.81-.6.27-1.13.02-4.52.2-5.74-7.89.52-14.52-4.84-16.26-11.97ZM40.9,72.66c-4.38.76-5.9-.97-6.12-4.17-.29-4.28.11-3.43,3.63-1.66.69.35,1.25.64,1.42.73,2.12,1.06,3.16,4.74,1.06,5.1Z"/>
          <path class="cls-2" d="M43.72,28.29c2.48,1.2,7.36,1.42,10.21,0,.31-.25.3-.72.22-1.47,1.62-.31,2.17-1.07,1.37-1.75-.32-.27-.83-.46-1.51-.82.06-.8-.03-1.36-.27-1.95-3.03,1.21-6.31,1.21-9.84,0-.24.59-.32,1.15-.26,1.95-.69.36-1.19.55-1.51.82-.79.68-.25,1.44,1.37,1.75-.09.75-.09,1.23.22,1.47Z"/>
          <path class="cls-2" d="M43.72,20.88c2.48,1.2,7.36,1.42,10.21,0,.31-.25.3-.72.22-1.47,1.62-.31,2.17-1.07,1.37-1.75-.32-.27-.83-.46-1.51-.82.06-.8-.03-1.36-.27-1.95-3.03,1.21-6.31,1.21-9.84,0-.24.59-.32,1.15-.26,1.95-.69.36-1.19.55-1.51.82-.79.68-.25,1.44,1.37,1.75-.09.75-.09,1.23.22,1.47Z"/>
          <path class="cls-2" d="M43.72,13.4c2.48,1.2,7.36,1.42,10.21,0,.31-.25.3-.72.22-1.47,1.62-.31,2.17-1.07,1.37-1.75-.32-.27-.83-.46-1.51-.82.06-.8-.03-1.36-.27-1.95-3.03,1.21-6.31,1.21-9.84,0-.24.59-.32,1.15-.26,1.95-.69.36-1.19.55-1.51.82-.79.68-.25,1.44,1.37,1.75-.09.75-.09,1.23.22,1.47Z"/>
          <path class="cls-1" d="M48.93,37.45c-2.19,0-4.28-.4-5.73-1.1l-.12-.06-.11-.08c-.52-.41-.69-.97-.72-1.52-1.09-.42-1.49-1.05-1.63-1.56-.19-.71.07-1.44.72-2,.32-.27.67-.45,1.08-.65.03-.59.14-1.12.36-1.66l.43-1.06,1.08.37c1.63.56,3.22.84,4.72.84s2.92-.28,4.28-.82l1.12-.45.45,1.12c.22.55.34,1.07.36,1.66.41.2.76.38,1.08.65.65.56.91,1.28.72,2-.14.51-.54,1.14-1.63,1.56-.03.54-.2,1.1-.72,1.52l-.1.08-.11.06c-1.43.72-3.4,1.11-5.54,1.11h0Z"/>
          <path class="cls-2" d="M43.72,35.26c2.48,1.2,7.36,1.42,10.21,0,.31-.25.3-.72.22-1.47,1.62-.31,2.17-1.07,1.37-1.75-.32-.27-.83-.46-1.51-.82.06-.8-.03-1.36-.27-1.95-3.03,1.21-6.31,1.21-9.84,0-.24.59-.32,1.15-.26,1.95-.69.36-1.19.55-1.51.82-.79.68-.25,1.44,1.37,1.75-.09.75-.09,1.23.22,1.47Z"/>
          <g>
            <path class="cls-4" d="M84.13,73.86c.17-2.17,1.45-3.71,2.48-4.94,1.47-1.76,2.21-2.64.25-4.44-1.04-.95-1.4-2.17-1.68-3.15-.28-.97-.47-1.53-.96-1.69-.09-.03-.18-.04-.28-.04-.83,0-1.99.9-3.01,1.7-1.06.83-1.98,1.55-2.84,1.55h0c-1.67,0-1.67-2.38-1.67-3.16,0-1.02-.52-1.81-1.54-2.35-.76-.4-1.76-.62-2.81-.62-1.58,0-2.99.5-3.52,1.25-1.51,2.14-.8,4.16-.42,4.93.64,1.31,1.67,2.03,2.36,2.06.02,0,.04,0,.06,0,.09,0,.16,0,.23-.03.15-.04.31-.06.47-.06,1.2,0,2.12,1.19,3.1,2.44.35.45.72.92,1.1,1.34,1.08,1.18.5,1.97.15,2.44-.36.5-.78,1.06.98,3.21,1.34,1.64,1.3,2.7,1.24,4.29-.01.39-.03.84-.03,1.34,0,.87,0,8.18-.02,11.6,2.12-1.42,4.13-3,6-4.72.09-4.9.22-10.93.37-12.95Z"/>
            <path class="cls-4" d="M20.91,79.93c0-.5-.01-.95-.03-1.34-.06-1.6-.1-2.66,1.24-4.29,1.76-2.15,1.34-2.71.98-3.21-.35-.47-.93-1.26.15-2.44.38-.42.74-.89,1.1-1.34.98-1.26,1.9-2.44,3.1-2.44.16,0,.32.02.47.06.07.02.15.03.23.03.02,0,.04,0,.06,0,.69-.03,1.72-.75,2.36-2.06.38-.77,1.09-2.79-.42-4.93-.53-.75-1.95-1.25-3.52-1.25-1.05,0-2.05.22-2.81.62-1.02.54-1.54,1.33-1.54,2.35,0,.78,0,3.16-1.67,3.16-.86,0-1.77-.72-2.84-1.55-1.02-.8-2.18-1.7-3.01-1.7-.1,0-.2.01-.28.04-.49.16-.68.72-.96,1.69-.29.98-.65,2.2-1.68,3.15-1.97,1.8-1.23,2.68.25,4.44,1.03,1.24,2.32,2.77,2.48,4.94.14,1.85.26,7.07.35,11.7,1.87,1.84,3.88,3.54,6.02,5.07-.01-3.66-.02-9.9-.01-10.71Z"/>
          </g>
          <g>
            <path class="cls-5" d="M53.38.13C52.25.05,51.13,0,49.98,0,48.23,0,46.5.09,44.8.27c3.05.88,5.91.83,8.58-.14Z"/>
            <path class="cls-4" d="M44.8.27c-.35.04-.69.09-1.03.13-.13.46-.17.93-.12,1.55-.69.36-1.19.55-1.51.82-.79.68-.25,1.44,1.37,1.75-.09.75-.09,1.23.22,1.47,2.48,1.2,7.36,1.42,10.21,0,.31-.25.3-.72.22-1.47,1.62-.31,2.17-1.07,1.37-1.75-.32-.27-.83-.46-1.51-.82.06-.73-.02-1.26-.21-1.79-.14-.01-.28-.02-.42-.03-2.67.98-5.53,1.02-8.58.14Z"/>
          </g>
        </g>
      </g>
    </g>
  </g>
</svg>