<?xml version="1.0" encoding="UTF-8"?>
<svg id="Layer_2" data-name="Layer 2" xmlns="http://www.w3.org/2000/svg" xmlns:xlink="http://www.w3.org/1999/xlink" viewBox="0 0 99.97 99.97">
  <defs>
    <style>
      .cls-1 {
        fill: #fff;
      }

      .cls-2 {
        fill: none;
      }

      .cls-3 {
        fill: #ccc;
      }

      .cls-4 {
        clip-path: url(#clippath);
      }

      .cls-5 {
        fill: #e6e6e6;
      }
    </style>
    <clipPath id="clippath">
      <circle class="cls-2" cx="49.98" cy="49.98" r="49.98"/>
    </clipPath>
  </defs>
  <g id="Icones">
    <g id="Joelho_Cinza">
      <circle class="cls-5" cx="49.98" cy="49.98" r="49.98"/>
      <g class="cls-4">
        <g id="_4" data-name="4">
          <g>
            <path class="cls-2" d="M63.19,48.91c7.57,8.67,16.44,23.41,20.78,37.71,9.84-9.13,16-22.16,16-36.64,0-13.56-5.41-25.86-14.18-34.86-7.73,6.98-28.58,26.21-22.6,33.79Z"/>
            <path class="cls-3" d="M83.97,86.62c-4.34-14.31-13.2-29.04-20.78-37.71-5.98-7.58,14.86-26.81,22.6-33.79C76.71,5.8,64.03,0,49.98,0,43.26,0,36.86,1.33,31,3.74c-11.52,16.68-18.81,29.82-17.75,37.79,1.3,7.74,3.19,6.37,10.67,18.31,4.58,7.31,11.54,26.41,16.73,39.25,3.02.57,6.14.88,9.33.88,13.13,0,25.07-5.07,33.98-13.34Z"/>
          </g>
          <g>
            <path class="cls-1" d="M34.95,24.21c-5.1,4.83-10.37,9.83-6.28,17.87,1.27,2.5,6.09,6.89,9.89,7.61.12.02.25.03.39.03,1.06,0,2.39-.61,3.26-1.02l.17-.08c5.59-2.57,4.83-6.01,3.96-10-.39-1.78-.79-3.62-.54-5.34.5-3.48,8.87-17.91,10.54-20.77,1.52-2.6,4.12-6.97,6.59-10.81-3.18-.85-6.48-1.39-9.87-1.6-5.08,7.97-16.12,22.22-18.11,24.11Z"/>
            <path class="cls-1" d="M56.22,72.75c-2.14-3.57-2.23-5.72-2.3-7.45-.07-1.7-.12-2.9-2.7-5.33-1.24,3.12-1.46,6.17-.6,8.73.79,1.51,1.8,2.72,2.87,3.99,1.94,2.31,4.14,4.92,5.68,9.98.57,1.87,1.46,4.35,2.4,6.97,1.01,2.81,2.03,5.66,2.83,8.2.66-.2,1.31-.41,1.95-.64-3.07-8.01-8.12-21.08-10.14-24.46Z"/>
            <path class="cls-1" d="M57.6,99.39c-3.51-9.97-9.92-30.28-8.37-37.32.3-1.37.75-2.27,1.15-3.07.37-.75.67-1.34.76-2.19.29-2.69-.12-5.25-1-6.23-.26-.29-.54-.42-.91-.42-.51,0-1.17.25-1.93.71-2.88,1.77-5.43,2.6-8.04,2.6-.81,0-1.53-.07-2.16-.14-.52-.05-.97-.1-1.39-.1-.86,0-1.74.14-3.05,1.8-2.16,2.73.3,12.2,3.49,19.85l.44,1.06c2.76,6.61,7.11,16.99,9.72,23.9,1.21.09,2.43.13,3.67.13,2.59,0,5.13-.2,7.62-.58Z"/>
            <path class="cls-1" d="M24.12,41.05c-.58-2.85-1.12-5.54.2-7.12.29-.83.16-1.47-.05-1.79-.15-.22-.36-.33-.65-.33-.21,0-.46.05-.73.16-.18.07-.37.15-.57.22-1.24.48-2.53.97-3.19,1.97-.99,1.48-1.29,3.29-.9,5.39.37,2.03,1.72,7.11,3.27,8.96.44.53.91.83,1.27.83.64,0,1.5-1.02,1.89-3.27.22-1.27-.17-3.18-.54-5.02Z"/>
          </g>
        </g>
      </g>
    </g>
  </g>
</svg>