<?xml version="1.0" encoding="UTF-8"?>
<svg id="Layer_2" data-name="Layer 2" xmlns="http://www.w3.org/2000/svg" xmlns:xlink="http://www.w3.org/1999/xlink" viewBox="0 0 99.97 99.97">
  <defs>
    <style>
      .cls-1 {
        fill: #fff;
      }

      .cls-2 {
        fill: none;
      }

      .cls-3 {
        fill: #187da0;
      }

      .cls-4 {
        fill: #27aae1;
      }

      .cls-5 {
        clip-path: url(#clippath);
      }
    </style>
    <clipPath id="clippath">
      <circle class="cls-2" cx="49.98" cy="49.98" r="49.98"/>
    </clipPath>
  </defs>
  <g id="Icones">
    <g id="Ombro_Azul">
      <g class="cls-5">
        <circle class="cls-4" cx="49.98" cy="49.98" r="49.98"/>
        <g>
          <path class="cls-3" d="M49.98,99.97c27.61,0,49.98-22.38,49.98-49.98,0-15.35-6.92-29.07-17.81-38.24-.84,3.25-2.22,6.41-4.67,7.64-3.05,1.52-9.35,2.52-12.88,3.26-12.33,2.58-26.4,3.77-38.3,6.99-11.09,3-15.38,9.98-14.5,21.4.2,2.62,1.06,5.57,1.41,8.23,1.01,7.88,1.1,16.56.62,25.21,9.1,9.54,21.93,15.49,36.16,15.49Z"/>
          <path class="cls-1" d="M91.3,22.47c-1.09-.5-2.36,1.37-2.55,1.41-.23.05-.62-.22-.93-.19-1.55.15-12.49,7.33-13.87,8.78-.42.44-.92,1.7-1.35,1.78-.17.03-1.92-.82-2.64-.9-1.12-.12-1.91.23-2.83.2-5.2-.18-11.76-2.02-17.17-2.61-3.34-.36-9.22-1.2-12.2.27-.69.34-1.88,1.81-2.02,1.84-.22.04-.89-.4-1.41-.46-1.68-.18-7.82.67-8.81,2.05-1.55,2.15.33,5.11,2.8,5.4l6.6.99c-1.36-.29-3.52,1.29-4.48,1.38-.4.04-.88-.24-1.4-.18-4.53.46-4.44,3.33-3.96,7.09.68,5.3,2.18,9.18,2.39,14.96.28,7.75-.02,15.66-.26,23.38-.07,2.42-.15,4.61-.27,6.67,2.56,1.33,5.24,2.46,8.03,3.34-.05-13.48,1.76-27.96,4.08-40.83.12-.64.7-1.58.7-1.96,0-.49-2.28-1.9-2.88-2.65-2.71-3.4-.45-7.28,2.64-9.39l-2.4-1.56c.6-.2,3.28.95,3.37,1.33-2.04,2.7-4.51,5.13-2.66,8.68,2.17,4.15,9.61,8.8,13.14,12.65.49.53,2.78,3.18,2.92,3.61.26.81-1.09,2.06-1.55,2.82-.72,1.22-2.87,4.31-.05,3.93.08-.51.9-1.66,1.2-2.17.29-.47,1.42-2.57,2.04-2.41.19.05,2.25,2.6,1.95,3.14-.11.2-1.91,1.56-2.3,1.93-.7.65-1.51,1.27-2.17,1.93-.9.9-5.22,5.77-5.28,6.63-.05.76.71,1.31,1.42.84.14-.84,1.2-1.4,1.69-1.93,1.46-1.58,2.47-2.31,4.1-3.62,1.05-.85,1.74-1.39,2.89-2.17.5-.34,1.59-1.59,2.24-1.42.3.08,1.17,1.11,1.5,1.43.2.19.58.21.59.24.3.42-.92.99-1.2,1.2-1.3.96-2.79,1.72-4.1,2.65-1.58,1.13-3.34,2.37-4.82,3.62-.57.48-2.01,1.69-2.41,2.17-.4.48-1.29,2.16-1.46,2.76-.41,1.45-.47,4.7,1.7,3.51.05-.38.91-1.77,1.2-2.17.49-.68.9-.92,1.45-1.45,1.4-1.34,2.18-1.64,3.61-2.65.89-.63,6.23-4.6,6.75-4.58.44-.57,2.44-2.09,3.03-2.17.73-.1,2.03.58,2.9.7.62.09,1.38.05,2.02.03l1.56-.73c.53.73-.94.7-1.32.73.12.54-.3.51-.6.72-.83.57-1.79.96-2.54,1.45-2.24,1.49-4.61,3.23-6.75,4.82-1.66,1.23-3.48,2.6-5.06,3.86-.77.61-1.69,1.33-2.41,1.93-.77.64-1.98,1.57-2.65,2.17-.92.83-2.74,2.81-3.18,3.93-.09.23-.17.47-.23.72.77.04,1.55.06,2.33.06,1.21,0,2.41-.06,3.61-.14.42-.39.86-.81,1.33-1.19,1.04-.85,2.04-1.78,3.13-2.65,2.1-1.67,4.09-3.24,6.26-4.82,1.23-.89,6.93-5.35,7.95-5.3,4.34-3.03,9.49-5.53,14.51-7.3,1.34-.47,3.33-.73,4.53-1.26.46-.2.8-.63,1.1-.87,1.12-1.79,2.13-3.67,3.02-5.6-.81.1-1.9.21-2.19.33-.29.12-1.2,1.28-1.61,1.4-.88.26-2.69.26-3.69.53-3.21.86-7.57,2.66-10.6,4.1-1.53.72-2.65,1.66-4.34,2.17-.01,0,.04.15-.12.24-.45-.28.07-.4.12-.48.45-.68.88-1.13,1.2-1.93.26-.64.67-2.97.88-3.16.34-.3,4.53-2.02,5.32-2.33,2.15-.85,8.57-2.55,9.93-3.8.37-.34.46-1.03.51-1.06.39-.28,1.2.47,1.31.47h3.98l.12,1.65c2.4-5.85,3.74-12.25,3.74-18.97,0-1.29-.06-2.56-.16-3.82-.59.02-1.15.01-1.64-.07-.32-.06-.68-.23-.6-.6.07-.32,1.03-.4,2.17-.4-.18-1.87-.47-3.71-.85-5.51,0,0,0,0,0,0-.5-.02-.44-.15-.35-.6,0-.06.08-.09.19-.11-.51-2.24-1.16-4.43-1.96-6.54-.22-.05-.23-.18-.18-.45-1.43-3.69-3.29-7.16-5.51-10.36.11.28.21.6.24.96ZM55.83,38.32c-5.57-1.61-13.21-1.34-18.55-3.14-.48-.16-.95-.39-1.15-.9,5.75.12,11.72-.52,17.29,1.14.56.17,4.25,1.56,4.39,1.75.4.54-1.57,1.29-1.98,1.14ZM88.01,27.02c.29-.13.53-.6.79-.65.26-.05,1,.36,1.05.57.23.98-1.77.79-2.23.89-.85.2-1.68.66-2.59.66.66-.82,2.01-1.04,2.98-1.48ZM84.79,28.5c.16.08-.14.41-.48.24-.16-.08.14-.41.48-.24ZM95.39,58.62c0,.24,0,.48,0,.72.02.92-.07,1.75.24,2.65-.77.07-1.93.07-2.65.24-1.66.4-2.64,2.13-2.82,2.17-.9.21-2.65.11-3.74.3-3.74.66-7.25,2.17-10.66,3.8-.22,0-.38-.97-.37-1.21,0-.28.31-2.09.4-2.19,4.28-2.58,8.31-4.38,13.1-5.76.7-.2,3.07-1.17,3.24-1.18.77-.04,2.24.83,3.27.46ZM94.91,53.56c-.61.2-1.44.26-2,.54-.82.41-.31.66-1.38.67-6.13.07-7.42,2.68-12.05,3.62.1.54-.88.79-1.29,1-.59.31-1.89,1.09-2.45,1.17-.61.09-.37-1.24-.36-1.69.02-.61.11-2.12.48-2.53.35-.39,5.84-2.78,6.75-3.13,2.45-.93,4.79-1.49,7.33-2.06,2.17-.49,1.93-.09,3.99.01.19,0,.69-.04.72,0,.08.09-.09,1.95.24,2.41ZM94.15,46.54c-.08.13-2.63,1.18-2.78,1.19-.37.03-.74-.52-1.21-.63-1.21-.29-5.74.58-7.11.98-1.06.31-7.13,3.35-7.41,3.07-.24-.25.1-.71.39-.93,1.64-1.25,5.96-2.74,8.04-3.65,1.81-.79,3.67-1.54,5.47-2.36.38-.17.63-.63.96-.72.92-.27,2.44.09,3.44-.05.01.16-.01.32,0,.48.04.57.39,2.35.21,2.62ZM94.62,37.35c.15,1.51-1.15,1.13-2.02,1.49-.55.23-1.25.67-1.79.98-2.3,1.29-5.15,2.22-7.71,3.37-.86.39-6.94,3.67-7.23,3.37.16-1.03-.22-2.68,0-3.61.17-.7,4.86-2.46,5.78-2.89,1.98-.92,6.11-3.27,7.94-3.74,1.37-.35,3.01.12,4.43-.37.17.03.57,1.19.59,1.41ZM92.74,31.87c-1.57-.55-2.16,1-2.9,1.34-.42.19-.8-.1-1.21-.02-3.19.62-6.48,2.09-9.38,3.51-.62.3-3.61,2.24-3.96,2.16l-1.11-2.51c0-.23.75-.26.97-.37,2.47-1.29,10.73-4.91,13.2-5.26.48-.07,4.24.04,4.39.2.06.06-.04.73,0,.96Z"/>
        </g>
      </g>
    </g>
  </g>
</svg>