<?xml version="1.0" encoding="UTF-8"?>
<svg id="Layer_2" data-name="Layer 2" xmlns="http://www.w3.org/2000/svg" xmlns:xlink="http://www.w3.org/1999/xlink" viewBox="0 0 99.97 99.97">
  <defs>
    <style>
      .cls-1 {
        fill: #fff;
      }

      .cls-2 {
        fill: none;
      }

      .cls-3 {
        fill: #ccc;
      }

      .cls-4 {
        clip-path: url(#clippath);
      }

      .cls-5 {
        fill: #e6e6e6;
      }
    </style>
    <clipPath id="clippath">
      <circle class="cls-2" cx="49.98" cy="49.98" r="49.98"/>
    </clipPath>
  </defs>
  <g id="Icones">
    <g id="Coluna_Cinza">
      <circle class="cls-5" cx="49.98" cy="49.98" r="49.98"/>
      <g class="cls-4">
        <g>
          <path class="cls-3" d="M79.13,73.14c-2.12-5.99-6.45-10.6-8.9-16.2-2.25-5.13-1.27-12.81-.77-18.38.98-10.91,2.69-21.76,4.15-32.63C66.57,2.15,58.53,0,49.98,0,39.6,0,29.96,3.17,21.97,8.59c-.07.96-.12,1.9-.12,2.82-.19,17.62-2.93,35.73,3.12,52.68,1.79,5.02,4.79,9.61,6.53,14.29.72,1.94.32,4.41.39,6.49.12,3.95.26,7.92.41,11.88,5.5,2.08,11.46,3.23,17.68,3.23,11.18,0,21.5-3.67,29.82-9.87,1.25-5.67,1.13-11.83-.68-16.96Z"/>
          <g>
            <path class="cls-2" d="M56.54.44c-.21.03-.42.07-.64.12-.37.09-.74.23-1.13.23-.31,0-.63-.11-.84-.33-.05-.06-.1-.12-.13-.2-.02-.03-.02-.07-.03-.1C52.52.06,51.26,0,49.98,0,22.38,0,0,22.38,0,49.98s22.38,49.98,49.98,49.98c1.91,0,3.79-.12,5.64-.33.13-.33.31-.64.57-.91.2-.21.42-.45.41-.74,0-.31-.27-.54-.48-.76-.89-.95-1.04-2.5-.35-3.6.5-.79,1.46-1.4,1.7-2.34.18-.72-.94-1.5-1.44-1.9-1.5-1.2-3.32-1.91-4.88-3.02-.34-.24-.66-.5-.96-.78-.56.35-1.14.64-1.83.72-.88.1-1.66-.74-1.8-1.56-.18-1.01.2-2.02.29-3.04.12-1.37-.32-2.77-1.2-3.83-.39-.48-.91-1.06-.65-1.62.17-.36.58-.51.96-.61,2.28-.62,4.7-.71,6.91-1.54,2.21-.83,4.3-2.71,4.32-5.07.66.31,1.34.63,2.07.69.73.06,1.53-.17,1.95-.77.34-.49.38-1.15.73-1.63.5-.7,1.47-.86,2.33-.83,1.99.09,3.94.95,5.34,2.36s2.25,3.37,2.31,5.36c-1.06.21-1.74-1.2-2.78-1.5-.66-.19-1.36.1-1.98.39-1.83.83-3.65,1.67-5.48,2.5-.14.07-.3.15-.35.3-.04.14.02.29.08.42.85,1.74,1.78,3.44,2.79,5.09.65,1.06,1.34,2.46.59,3.45-.41.55-1.17.78-1.54,1.36-.57.9.05,2.05.5,3.02,1.01,2.17,1.13,4.71.5,7.02-.17.63-.4,1.25-.67,1.84,21-5.92,36.4-25.21,36.4-48.1C99.97,24.6,81.04,3.65,56.54.44ZM54.66,3.26c.16-.31.27-.65.33-1,.05-.28.12-.49.26-.63l.43-.04s.07,0,.07,0c1.42-.1,2.77.29,4.12.65.25.07.5.14.75.2-.13.59-.18,1.21-.55,1.69-.65.84-1.72.6-2.6.37-.85-.22-1.69-.44-2.54-.66-.39-.1-.45-.2-.27-.57ZM49.29,21.43c.2-.36.34-.75.42-1.15.07-.32.16-.57.33-.72l.5-.03s.08,0,.08,0c1.66-.06,3.22.44,4.79.91.29.09.58.18.86.26-.17.69-.26,1.41-.7,1.95-.79.95-2.03.63-3.05.33-.98-.29-1.96-.58-2.94-.87-.46-.13-.52-.26-.29-.68ZM46.34,27.1c.12-.16.26-.31.39-.46.16-.18.31-.37.45-.57.16-.23.3-.47.4-.73.05-.14.1-.28.13-.42.07-.28.08-.58.08-.87,0-.07,0-.13,0-.2-.02-.28-.16-.7-.08-.97.14-.46.71-.33,1.05-.24,1.01.27,2.01.75,3.03,1.07,1.01.32,2.04.49,3.12.16.56-.17.98-.47,1.35-.87.11-.11.21-.23.3-.36.14.1.25.24.37.4.15.21.3.45.51.6.09.07.19.13.29.17.3.13.63.16.94.05.05-.02.1-.04.15-.07.22-.12.39-.31.59-.47.14-.11.28-.21.45-.25.39-.09.78.12,1.11.35,1.2.86,2.26,2.17,2.35,3.68.04.61-.07,1.23-.24,1.81-.05.15-.24.99-.4,1.03-.29.07-.89-1.53-1.01-1.75-.24-.45-.89-.36-1.31-.35-.67.02-1.34-.07-2-.16-.52-.08-1.06-.27-1.58-.3-.57-.04-.24,1.06-.22,1.4.03.44-.04.92-.36,1.23-.35.33-.89.35-1.36.25-2.08-.45-4.11-1.3-6.28-1.15-.48.03-.97.11-1.45.03-.38-.07-.76-.28-.96-.6-.05-.08-.09-.17-.12-.27-.12-.44.07-.83.32-1.16ZM54.18,31.25c-.19.74-.28,1.52-.76,2.11-.86,1.03-2.19.69-3.29.36-1.06-.31-2.12-.63-3.18-.94-.49-.15-.56-.28-.31-.73.21-.39.37-.81.46-1.25.07-.35.17-.61.36-.78l.54-.03s.09,0,.09,0c1.79-.07,3.48.48,5.17.98.31.1.62.19.94.28ZM43.44,38.18c.13-.17.28-.34.42-.49.17-.19.34-.4.49-.61.17-.25.32-.51.43-.79.06-.15.11-.3.14-.46.07-.31.09-.62.09-.94,0-.07,0-.14,0-.22-.02-.3-.17-.76-.09-1.05.15-.5.77-.36,1.13-.26,1.09.29,2.17.81,3.27,1.16,1.09.35,2.21.53,3.38.17.6-.18,1.06-.51,1.46-.94.11-.12.22-.25.33-.38.15.11.27.26.4.43.17.23.33.48.55.65.1.07.21.14.32.19.32.14.68.18,1.01.05.06-.02.11-.05.17-.08.23-.13.43-.34.63-.51.15-.12.3-.22.49-.27.42-.1.84.13,1.19.38,1.29.93,2.44,2.35,2.54,3.97.04.66-.08,1.33-.26,1.96-.05.17-.26,1.07-.43,1.11-.32.08-.96-1.65-1.09-1.9-.26-.49-.96-.39-1.42-.37-.72.03-1.45-.07-2.16-.18-.56-.08-1.15-.29-1.71-.33-.62-.04-.26,1.15-.24,1.52.03.48-.05,1-.39,1.33-.38.36-.96.38-1.47.27-2.25-.49-4.44-1.4-6.79-1.25-.52.03-1.05.12-1.57.03-.41-.07-.82-.3-1.04-.65-.06-.09-.1-.19-.13-.29-.12-.48.08-.89.35-1.26ZM51.09,44.57c-.59,1.2-1.97,1.18-3.12,1.12-1.1-.06-2.21-.11-3.31-.17-.51-.03-.61-.14-.48-.64.12-.43.17-.87.15-1.32-.01-.36.02-.64.16-.84l.52-.16s.08-.03.08-.03c1.73-.49,3.5-.35,5.26-.26.33.02.65.04.97.05,0,.77.09,1.55-.24,2.23ZM42.47,52.9c-.23-.44-.14-.89.05-1.31.09-.2.19-.39.29-.58.12-.23.24-.47.33-.71.11-.28.19-.57.24-.87.02-.16.03-.32.03-.48,0-.32-.06-.63-.14-.93-.02-.07-.04-.14-.06-.21-.09-.29-.35-.7-.33-1,.03-.52.67-.53,1.04-.52,1.13.03,2.3.27,3.45.36,1.14.08,2.27,0,3.32-.63.54-.32.91-.74,1.2-1.26.08-.14.16-.29.23-.45.17.07.33.19.49.33.22.19.43.39.69.5.11.05.23.09.35.11.34.06.7.01,1-.19.05-.03.1-.07.14-.11.2-.18.34-.43.5-.64.11-.15.24-.29.41-.38.38-.2.85-.07,1.25.09,1.47.6,2.93,1.71,3.4,3.27.19.63.24,1.31.21,1.96,0,.17,0,1.1-.16,1.18-.29.15-1.32-1.38-1.5-1.59-.37-.41-1.02-.16-1.47-.03-.69.19-1.43.27-2.14.34-.57.05-1.18-.01-1.74.08-.61.1.02,1.18.12,1.53.14.46.19.98-.07,1.38-.28.44-.85.6-1.37.61-2.3.05-4.64-.32-6.89.38-.5.16-.99.37-1.52.4-.42.02-.87-.1-1.17-.39-.08-.07-.14-.16-.19-.25ZM44.24,56.51c-.08-.39-.1-.71.02-.96l.54-.27s.09-.04.09-.04c1.82-.86,3.79-1.04,5.76-1.27.36-.04.73-.08,1.09-.12.14.85.39,1.69.15,2.5-.42,1.44-1.95,1.68-3.23,1.83-1.23.15-2.46.29-3.69.44-.57.07-.7-.04-.65-.61.05-.49.02-1-.08-1.48ZM55.79,69.87c-.32,2-2.33,2.59-4.01,3.02-1.62.41-3.25.82-4.87,1.24-.75.19-.95.07-.98-.71-.02-.67-.15-1.34-.37-1.98-.18-.51-.25-.93-.14-1.29l.68-.46s.11-.07.11-.07c2.29-1.48,4.91-2.07,7.51-2.72.48-.12.96-.23,1.44-.36.33,1.12.82,2.2.64,3.34ZM63.26,61.08c-.29.22-1.72-1.27-1.96-1.47-.49-.39-1.16.02-1.63.24-.73.34-1.52.57-2.3.77-.61.16-1.31.21-1.9.42-.66.23.24,1.3.42,1.66.24.48.39,1.05.18,1.54-.23.53-.82.82-1.39.93-2.53.49-5.19.52-7.53,1.71-.52.27-1.03.59-1.6.72-.46.11-.98.06-1.36-.21-.1-.07-.18-.15-.26-.24-.34-.44-.32-.95-.19-1.45.06-.24.14-.47.21-.69.09-.28.17-.56.23-.85.07-.33.1-.67.1-1.01,0-.18-.02-.36-.05-.53-.06-.35-.18-.68-.33-1-.03-.07-.07-.15-.1-.22-.15-.3-.51-.7-.55-1.04-.07-.58.64-.71,1.05-.77,1.26-.18,2.59-.13,3.88-.26,1.28-.12,2.5-.43,3.55-1.32.54-.46.87-.99,1.09-1.61.06-.17.12-.35.17-.54.2.04.4.15.6.27.27.16.55.35.85.42.14.03.27.05.41.05.39,0,.78-.12,1.06-.39.05-.05.09-.1.14-.15.18-.24.29-.53.43-.8.1-.19.21-.36.38-.49.39-.29.93-.24,1.4-.13,1.74.39,3.55,1.34,4.37,2.97.33.66.51,1.4.6,2.13.02.19.21,1.21.05,1.33ZM64.57,18.68c-.04.13-.2.84-.34.88-.25.06-.76-1.31-.86-1.5-.21-.39-.76-.31-1.13-.3-.57.02-1.15-.06-1.71-.14-.44-.07-.91-.23-1.35-.26-.49-.03-.21.91-.19,1.2.02.38-.04.79-.31,1.05-.3.28-.76.3-1.16.21-1.78-.39-3.51-1.11-5.37-.99-.41.03-.83.1-1.24.02-.33-.06-.65-.24-.83-.51-.04-.07-.08-.15-.1-.23-.1-.38.06-.71.28-1,.1-.14.22-.27.33-.39.14-.15.27-.32.39-.49.14-.2.25-.41.34-.63.05-.12.09-.24.11-.36.06-.24.07-.49.07-.74,0-.06,0-.11,0-.17-.02-.24-.14-.6-.07-.83.12-.4.61-.28.9-.21.87.23,1.72.64,2.59.92.87.28,1.75.42,2.67.14.48-.15.84-.4,1.16-.75.09-.1.18-.2.26-.3.12.08.22.21.31.34.13.18.26.38.43.51.08.06.16.11.25.15.25.11.54.14.8.04.04-.02.09-.04.13-.06.19-.1.34-.27.5-.4.12-.1.24-.18.39-.21.33-.08.67.1.95.3,1.02.74,1.93,1.86,2.01,3.15.03.52-.06,1.05-.21,1.55ZM52.78,12.27c.17-.31.29-.64.36-.99.06-.28.13-.49.28-.62l.43-.02s.07,0,.07,0c1.42-.06,2.76.38,4.1.78.25.08.49.15.74.22-.15.59-.22,1.21-.6,1.67-.68.82-1.74.54-2.61.29-.84-.25-1.68-.5-2.52-.74-.39-.12-.44-.22-.25-.58ZM66.66,9.28c-.04.13-.18.85-.31.89-.25.07-.8-1.28-.91-1.47-.22-.38-.77-.29-1.13-.26-.57.04-1.15-.02-1.71-.08-.45-.05-.92-.2-1.36-.22-.49-.02-.18.92-.15,1.21.04.38-.01.79-.28,1.06-.29.29-.75.33-1.16.25-1.79-.33-3.55-.99-5.4-.81-.41.04-.83.12-1.24.06-.33-.05-.66-.21-.84-.49-.05-.07-.08-.15-.11-.23-.11-.38.04-.71.25-1.01.1-.14.21-.28.32-.4.13-.16.26-.32.37-.5.13-.2.24-.41.32-.64.04-.12.08-.24.1-.37.05-.25.06-.49.04-.74,0-.06,0-.11-.01-.17-.02-.24-.16-.59-.1-.83.11-.4.6-.3.89-.24.87.2,1.74.58,2.62.83.87.25,1.76.36,2.68.05.47-.16.83-.43,1.13-.78.09-.1.17-.2.25-.31.12.08.22.2.32.33.14.18.27.37.45.5.08.06.17.1.26.14.26.1.54.12.8.02.04-.02.09-.04.13-.06.18-.11.33-.28.49-.42.11-.1.23-.19.38-.23.33-.09.67.08.96.27,1.05.7,1.99,1.8,2.11,3.08.05.52-.03,1.05-.16,1.56Z"/>
            <path class="cls-1" d="M62.62,57.62c-.82-1.63-2.63-2.58-4.37-2.97-.47-.11-1.01-.15-1.4.13-.17.13-.29.3-.38.49-.14.27-.24.56-.43.8-.04.06-.09.11-.14.15-.29.28-.67.4-1.06.39-.14,0-.28-.02-.41-.05-.3-.07-.58-.26-.85-.42-.2-.12-.4-.23-.6-.27-.05.19-.1.37-.17.54-.22.62-.55,1.16-1.09,1.61-1.04.89-2.27,1.19-3.55,1.32-1.28.13-2.62.07-3.88.26-.41.06-1.12.18-1.05.77.04.34.4.73.55,1.04.04.07.07.15.1.22.15.32.26.65.33,1,.03.18.05.36.05.53,0,.34-.03.67-.1,1.01-.06.29-.14.57-.23.85-.08.22-.16.45-.21.69-.12.5-.15,1.01.19,1.45.07.1.16.18.26.24.38.27.9.31,1.36.21.57-.13,1.08-.46,1.6-.72,2.35-1.19,5-1.22,7.53-1.71.57-.11,1.16-.39,1.39-.93.21-.49.06-1.06-.18-1.54-.19-.37-1.08-1.43-.42-1.66.59-.21,1.29-.25,1.9-.42.78-.21,1.57-.43,2.3-.77.47-.22,1.14-.63,1.63-.24.24.19,1.67,1.69,1.96,1.47.16-.12-.02-1.14-.05-1.33-.09-.73-.27-1.47-.6-2.13Z"/>
            <path class="cls-1" d="M44.97,58.61c1.23-.15,2.46-.29,3.69-.44,1.27-.15,2.8-.39,3.23-1.83.24-.81-.01-1.65-.15-2.5-.36.05-.72.09-1.09.12-1.96.23-3.94.41-5.76,1.27,0,0-.09.04-.09.04l-.54.27c-.12.25-.1.57-.02.96.1.49.13.99.08,1.48-.05.58.08.68.65.61Z"/>
            <path class="cls-1" d="M63.74,89.22c-.45-.97-1.07-2.12-.5-3.02.37-.58,1.13-.81,1.54-1.36.75-.99.06-2.39-.59-3.45-1.02-1.65-1.95-3.35-2.79-5.09-.06-.13-.13-.28-.08-.42.05-.15.21-.23.35-.3,1.83-.83,3.65-1.67,5.48-2.5.63-.29,1.32-.58,1.98-.39,1.04.3,1.72,1.71,2.78,1.5-.07-1.99-.91-3.95-2.31-5.36s-3.35-2.28-5.34-2.36c-.86-.04-1.83.13-2.33.83-.35.49-.39,1.14-.73,1.63-.42.6-1.22.84-1.95.77-.73-.06-1.41-.38-2.07-.69-.01,2.36-2.1,4.24-4.32,5.07-2.21.83-4.63.92-6.91,1.54-.38.1-.8.26-.96.61-.26.56.25,1.15.65,1.62.88,1.06,1.32,2.46,1.2,3.83-.09,1.02-.47,2.03-.29,3.04.14.82.92,1.66,1.8,1.56.69-.08,1.27-.37,1.83-.72.3.28.62.54.96.78,1.56,1.11,3.38,1.82,4.88,3.02.5.4,1.63,1.18,1.44,1.9-.24.94-1.2,1.55-1.7,2.34-.69,1.1-.54,2.66.35,3.6.21.22.47.45.48.76,0,.29-.21.53-.41.74-.26.28-.44.59-.57.91,2.72-.31,5.37-.83,7.94-1.56.27-.6.5-1.21.67-1.84.63-2.31.51-4.85-.5-7.02Z"/>
            <path class="cls-1" d="M53.71,66.89c-2.6.65-5.22,1.24-7.51,2.72,0,0-.11.07-.11.07l-.68.46c-.11.36-.04.78.14,1.29.22.64.35,1.31.37,1.98.03.78.22.9.98.71,1.62-.41,3.25-.83,4.87-1.24,1.68-.43,3.7-1.02,4.01-3.02.18-1.14-.31-2.22-.64-3.34-.48.13-.96.24-1.44.36Z"/>
            <path class="cls-1" d="M45.34,53.15c2.24-.7,4.59-.32,6.89-.38.52-.01,1.08-.17,1.37-.61.26-.4.21-.93.07-1.38-.11-.35-.74-1.42-.12-1.53.55-.09,1.17-.03,1.74-.08.72-.06,1.45-.14,2.14-.34.45-.12,1.1-.38,1.47.03.18.21,1.22,1.74,1.5,1.59.16-.08.15-1.01.16-1.18.03-.66-.01-1.33-.21-1.96-.48-1.55-1.93-2.67-3.4-3.27-.4-.16-.87-.29-1.25-.09-.17.09-.3.22-.41.38-.16.21-.3.46-.5.64-.05.04-.09.08-.14.11-.29.2-.65.25-1,.19-.12-.02-.24-.06-.35-.11-.25-.11-.47-.32-.69-.5-.16-.14-.31-.26-.49-.33-.07.16-.15.31-.23.45-.29.51-.66.94-1.2,1.26-1.05.63-2.18.71-3.32.63-1.15-.08-2.32-.33-3.45-.36-.37,0-1.01,0-1.04.52-.02.3.24.71.33,1,.02.07.04.14.06.21.08.3.13.62.14.93,0,.16-.01.32-.03.48-.04.3-.13.59-.24.87-.09.24-.21.48-.33.71-.1.18-.21.38-.29.58-.18.42-.28.87-.05,1.31.05.1.12.18.19.25.3.29.75.41,1.17.39.52-.03,1.02-.24,1.52-.4Z"/>
            <path class="cls-1" d="M45.1,42.54s-.08.03-.08.03l-.52.16c-.14.21-.17.48-.16.84.02.45-.03.89-.15,1.32-.13.5-.04.61.48.64,1.1.06,2.21.11,3.31.17,1.15.06,2.53.08,3.12-1.12.33-.68.24-1.46.24-2.23-.32-.01-.65-.03-.97-.05-1.76-.09-3.53-.23-5.26.26Z"/>
            <path class="cls-1" d="M43.21,39.73c.22.35.63.58,1.04.65.52.09,1.04,0,1.57-.03,2.35-.15,4.54.76,6.79,1.25.51.11,1.09.09,1.47-.27.35-.33.42-.85.39-1.33-.02-.36-.38-1.56.24-1.52.56.04,1.15.25,1.71.33.71.1,1.44.2,2.16.18.46-.02,1.16-.11,1.42.37.13.24.77,1.97,1.09,1.9.17-.04.38-.94.43-1.11.18-.63.3-1.3.26-1.96-.1-1.62-1.25-3.04-2.54-3.97-.35-.25-.78-.48-1.19-.38-.19.04-.34.15-.49.27-.21.17-.4.37-.63.51-.05.03-.11.06-.17.08-.33.12-.69.09-1.01-.05-.11-.05-.22-.11-.32-.19-.22-.17-.38-.42-.55-.65-.12-.17-.24-.33-.4-.43-.11.14-.22.26-.33.38-.4.43-.86.76-1.46.94-1.17.36-2.28.18-3.38-.17-1.1-.35-2.18-.86-3.27-1.16-.36-.09-.98-.24-1.13.26-.09.29.07.74.09,1.05,0,.07,0,.14,0,.22,0,.31-.01.63-.09.94-.04.16-.09.31-.14.46-.11.28-.26.54-.43.79-.15.22-.32.42-.49.61-.14.15-.29.32-.42.49-.28.37-.48.78-.35,1.26.03.11.07.2.13.29Z"/>
            <path class="cls-1" d="M47.99,29.99l-.54.03c-.19.17-.28.43-.36.78-.09.44-.24.86-.46,1.25-.25.45-.18.58.31.73,1.06.31,2.12.63,3.18.94,1.1.32,2.44.67,3.29-.36.48-.58.57-1.36.76-2.11-.31-.09-.62-.18-.94-.28-1.69-.51-3.38-1.05-5.17-.98,0,0-.09,0-.09,0Z"/>
            <path class="cls-1" d="M46.13,28.54c.2.33.58.53.96.6.48.09.97,0,1.45-.03,2.17-.14,4.2.7,6.28,1.15.47.1,1.01.08,1.36-.25.32-.3.39-.79.36-1.23-.02-.34-.35-1.44.22-1.4.52.04,1.06.23,1.58.3.66.1,1.33.19,2,.16.43-.02,1.07-.11,1.31.35.12.23.72,1.82,1.01,1.75.16-.04.35-.87.4-1.03.17-.58.28-1.2.24-1.81-.09-1.5-1.16-2.82-2.35-3.68-.32-.23-.72-.45-1.11-.35-.17.04-.32.14-.45.25-.19.16-.37.35-.59.47-.05.03-.1.05-.15.07-.31.12-.64.08-.94-.05-.1-.05-.2-.1-.29-.17-.21-.15-.35-.39-.51-.6-.11-.16-.23-.3-.37-.4-.1.13-.2.24-.3.36-.37.4-.79.7-1.35.87-1.08.33-2.11.16-3.12-.16-1.02-.32-2.01-.8-3.03-1.07-.33-.09-.91-.22-1.05.24-.08.27.06.69.08.97,0,.07,0,.13,0,.2,0,.29-.01.58-.08.87-.03.15-.08.29-.13.42-.1.26-.24.5-.4.73-.14.2-.29.39-.45.57-.13.14-.27.29-.39.46-.25.34-.44.72-.32,1.16.03.1.07.19.12.27Z"/>
            <path class="cls-1" d="M49.58,22.11c.98.29,1.96.58,2.94.87,1.02.3,2.26.62,3.05-.33.45-.54.53-1.26.7-1.95-.29-.08-.58-.17-.86-.26-1.57-.47-3.13-.98-4.79-.91,0,0-.08,0-.08,0l-.5.03c-.17.16-.26.4-.33.72-.08.4-.22.79-.42,1.15-.23.42-.16.54.29.68Z"/>
            <path class="cls-1" d="M62.76,13.99c-.28-.2-.61-.38-.95-.3-.15.04-.27.12-.39.21-.16.13-.32.3-.5.4-.04.02-.09.04-.13.06-.26.1-.55.07-.8-.04-.09-.04-.17-.09-.25-.15-.18-.13-.3-.33-.43-.51-.1-.13-.19-.26-.31-.34-.08.11-.17.21-.26.3-.32.34-.68.6-1.16.75-.93.29-1.81.14-2.67-.14-.87-.28-1.72-.68-2.59-.92-.28-.07-.78-.19-.9.21-.07.23.05.59.07.83,0,.06,0,.11,0,.17,0,.25-.01.5-.07.74-.03.12-.07.24-.11.36-.09.22-.21.43-.34.63-.12.17-.25.33-.39.49-.11.12-.23.25-.33.39-.22.29-.38.62-.28,1,.02.08.06.16.1.23.17.28.5.46.83.51.41.07.83,0,1.24-.02,1.86-.12,3.59.6,5.37.99.4.09.87.07,1.16-.21.27-.26.33-.67.31-1.05-.02-.29-.3-1.23.19-1.2.44.03.91.19,1.35.26.56.08,1.14.16,1.71.14.37-.01.92-.09,1.13.3.1.19.61,1.56.86,1.5.14-.03.3-.75.34-.88.15-.5.24-1.03.21-1.55-.08-1.29-.99-2.41-2.01-3.15Z"/>
            <path class="cls-1" d="M55.54,13.6c.87.26,1.93.53,2.61-.29.38-.46.45-1.08.6-1.67-.25-.07-.49-.15-.74-.22-1.34-.4-2.68-.83-4.1-.78,0,0-.07,0-.07,0l-.43.02c-.15.13-.22.34-.28.62-.07.35-.19.68-.36.99-.19.36-.14.46.25.58.84.25,1.68.5,2.52.74Z"/>
            <path class="cls-1" d="M64.7,4.65c-.28-.19-.63-.36-.96-.27-.15.04-.27.13-.38.23-.16.14-.31.31-.49.42-.04.03-.09.05-.13.06-.26.11-.54.09-.8-.02-.09-.04-.18-.08-.26-.14-.18-.13-.31-.32-.45-.5-.1-.13-.2-.25-.32-.33-.08.11-.16.21-.25.31-.3.35-.66.62-1.13.78-.92.32-1.8.2-2.68-.05-.88-.25-1.74-.63-2.62-.83-.29-.07-.78-.17-.89.24-.06.23.07.59.1.83,0,.06,0,.11.01.17.01.25,0,.5-.04.74-.02.13-.06.25-.1.37-.08.22-.19.44-.32.64-.11.17-.24.34-.37.5-.11.13-.22.26-.32.4-.21.3-.36.63-.25,1.01.02.08.06.16.11.23.18.27.51.44.84.49.41.06.83-.02,1.24-.06,1.85-.18,3.61.49,5.4.81.4.07.87.04,1.16-.25.27-.27.31-.69.28-1.06-.03-.29-.34-1.22.15-1.21.45.02.91.16,1.36.22.57.06,1.15.12,1.71.08.37-.03.91-.12,1.13.26.11.19.66,1.54.91,1.47.14-.04.28-.76.31-.89.13-.5.2-1.04.16-1.56-.12-1.28-1.07-2.38-2.11-3.08Z"/>
            <path class="cls-1" d="M54.93,3.83c.85.22,1.7.44,2.54.66.88.23,1.95.47,2.6-.37.37-.47.42-1.09.55-1.69-.25-.06-.5-.13-.75-.2-1.35-.36-2.7-.75-4.12-.65,0,0-.07,0-.07,0l-.43.04c-.14.14-.21.35-.26.63-.06.35-.17.69-.33,1-.18.37-.13.47.27.57Z"/>
            <path class="cls-1" d="M53.93.45c.2.23.53.33.84.33.38,0,.76-.13,1.13-.23.21-.05.42-.09.64-.12-.91-.12-1.84-.21-2.76-.28.01.03.01.07.03.1.03.07.08.14.13.2Z"/>
          </g>
        </g>
      </g>
    </g>
  </g>
</svg>